{
	"asset":{
		"generator":"Khronos glTF Blender I/O v5.1.19",
		"version":"2.0"
	},
	"extensionsUsed":[
		"KHR_materials_specular",
		"KHR_materials_ior"
	],
	"scene":0,
	"scenes":[
		{
			"name":"Scene",
			"nodes":[
				2
			]
		}
	],
	"nodes":[
		{
			"mesh":0,
			"name":"tank_gun_001"
		},
		{
			"children":[
				0
			],
			"mesh":1,
			"name":"tank_tower_001"
		},
		{
			"children":[
				1
			],
			"mesh":2,
			"name":"tank_001"
		}
	],
	"materials":[
		{
			"doubleSided":true,
			"name":"picture_1",
			"pbrMetallicRoughness":{
				"baseColorTexture":{
					"index":0
				},
				"metallicFactor":0,
				"roughnessFactor":0.5
			}
		},
		{
			"doubleSided":true,
			"extensions":{
				"KHR_materials_specular":{
					"specularFactor":0.43272799253463745
				},
				"KHR_materials_ior":{
					"ior":1.4500000476837158
				}
			},
			"name":"Material.001",
			"pbrMetallicRoughness":{
				"baseColorTexture":{
					"index":1
				},
				"metallicFactor":0,
				"roughnessFactor":0.5527864098548889
			}
		}
	],
	"meshes":[
		{
			"name":"Mesh.016",
			"primitives":[
				{
					"attributes":{
						"POSITION":0,
						"NORMAL":1,
						"TEXCOORD_0":2,
						"TANGENT":3
					},
					"indices":4,
					"material":0
				}
			]
		},
		{
			"name":"Mesh.019",
			"primitives":[
				{
					"attributes":{
						"POSITION":5,
						"NORMAL":6,
						"TEXCOORD_0":7,
						"TANGENT":8
					},
					"indices":9,
					"material":1
				},
				{
					"attributes":{
						"POSITION":10,
						"NORMAL":11,
						"TEXCOORD_0":12,
						"TANGENT":13
					},
					"indices":14,
					"material":0
				}
			]
		},
		{
			"name":"Mesh.015",
			"primitives":[
				{
					"attributes":{
						"POSITION":15,
						"NORMAL":16,
						"TEXCOORD_0":17,
						"TANGENT":18
					},
					"indices":19,
					"material":1
				},
				{
					"attributes":{
						"POSITION":20,
						"NORMAL":21,
						"TEXCOORD_0":22,
						"TANGENT":23
					},
					"indices":24,
					"material":0
				}
			]
		}
	],
	"textures":[
		{
			"sampler":0,
			"source":0
		},
		{
			"sampler":0,
			"source":1
		}
	],
	"images":[
		{
			"mimeType":"image/jpeg",
			"name":"tank_1",
			"uri":"tank_1.jpg"
		},
		{
			"mimeType":"image/jpeg",
			"name":"tank_2",
			"uri":"tank_1.jpg"
		}
	],
	"accessors":[
		{
			"bufferView":0,
			"componentType":5126,
			"count":153,
			"max":[
				0.07635315507650375,
				0.5022616386413574,
				1.1605178117752075
			],
			"min":[
				-0.07592660188674927,
				0.3499910235404968,
				0.2929017245769501
			],
			"type":"VEC3"
		},
		{
			"bufferView":1,
			"componentType":5126,
			"count":153,
			"type":"VEC3"
		},
		{
			"bufferView":2,
			"componentType":5126,
			"count":153,
			"type":"VEC2"
		},
		{
			"bufferView":3,
			"componentType":5126,
			"count":153,
			"type":"VEC4"
		},
		{
			"bufferView":4,
			"componentType":5123,
			"count":318,
			"type":"SCALAR"
		},
		{
			"bufferView":5,
			"componentType":5126,
			"count":888,
			"max":[
				0.3126673400402069,
				1.1245207786560059,
				0.4364546537399292
			],
			"min":[
				-0.321431964635849,
				0.4603235125541687,
				-0.13396641612052917
			],
			"type":"VEC3"
		},
		{
			"bufferView":6,
			"componentType":5126,
			"count":888,
			"type":"VEC3"
		},
		{
			"bufferView":7,
			"componentType":5126,
			"count":888,
			"type":"VEC2"
		},
		{
			"bufferView":8,
			"componentType":5126,
			"count":888,
			"type":"VEC4"
		},
		{
			"bufferView":9,
			"componentType":5123,
			"count":1824,
			"type":"SCALAR"
		},
		{
			"bufferView":10,
			"componentType":5126,
			"count":1271,
			"max":[
				0.43644601106643677,
				0.6757482290267944,
				0.4200229048728943
			],
			"min":[
				-0.4456596076488495,
				0.29000324010849,
				-0.4639742374420166
			],
			"type":"VEC3"
		},
		{
			"bufferView":11,
			"componentType":5126,
			"count":1271,
			"type":"VEC3"
		},
		{
			"bufferView":12,
			"componentType":5126,
			"count":1271,
			"type":"VEC2"
		},
		{
			"bufferView":13,
			"componentType":5126,
			"count":1271,
			"type":"VEC4"
		},
		{
			"bufferView":14,
			"componentType":5123,
			"count":2544,
			"type":"SCALAR"
		},
		{
			"bufferView":15,
			"componentType":5126,
			"count":2496,
			"max":[
				0.46839824318885803,
				0.36232009530067444,
				0.7885755300521851
			],
			"min":[
				-0.4772302508354187,
				0.0006729603046551347,
				-0.7936931848526001
			],
			"type":"VEC3"
		},
		{
			"bufferView":16,
			"componentType":5126,
			"count":2496,
			"type":"VEC3"
		},
		{
			"bufferView":17,
			"componentType":5126,
			"count":2496,
			"type":"VEC2"
		},
		{
			"bufferView":18,
			"componentType":5126,
			"count":2496,
			"type":"VEC4"
		},
		{
			"bufferView":19,
			"componentType":5123,
			"count":4620,
			"type":"SCALAR"
		},
		{
			"bufferView":20,
			"componentType":5126,
			"count":2794,
			"max":[
				0.49181970953941345,
				0.45460760593414307,
				0.8387914896011353
			],
			"min":[
				-0.5010578036308289,
				0.04207005351781845,
				-0.9297018051147461
			],
			"type":"VEC3"
		},
		{
			"bufferView":21,
			"componentType":5126,
			"count":2794,
			"type":"VEC3"
		},
		{
			"bufferView":22,
			"componentType":5126,
			"count":2794,
			"type":"VEC2"
		},
		{
			"bufferView":23,
			"componentType":5126,
			"count":2794,
			"type":"VEC4"
		},
		{
			"bufferView":24,
			"componentType":5123,
			"count":6582,
			"type":"SCALAR"
		}
	],
	"bufferViews":[
		{
			"buffer":0,
			"byteLength":1836,
			"byteOffset":0,
			"target":34962
		},
		{
			"buffer":0,
			"byteLength":1836,
			"byteOffset":1836,
			"target":34962
		},
		{
			"buffer":0,
			"byteLength":1224,
			"byteOffset":3672,
			"target":34962
		},
		{
			"buffer":0,
			"byteLength":2448,
			"byteOffset":4896,
			"target":34962
		},
		{
			"buffer":0,
			"byteLength":636,
			"byteOffset":7344,
			"target":34963
		},
		{
			"buffer":0,
			"byteLength":10656,
			"byteOffset":7980,
			"target":34962
		},
		{
			"buffer":0,
			"byteLength":10656,
			"byteOffset":18636,
			"target":34962
		},
		{
			"buffer":0,
			"byteLength":7104,
			"byteOffset":29292,
			"target":34962
		},
		{
			"buffer":0,
			"byteLength":14208,
			"byteOffset":36396,
			"target":34962
		},
		{
			"buffer":0,
			"byteLength":3648,
			"byteOffset":50604,
			"target":34963
		},
		{
			"buffer":0,
			"byteLength":15252,
			"byteOffset":54252,
			"target":34962
		},
		{
			"buffer":0,
			"byteLength":15252,
			"byteOffset":69504,
			"target":34962
		},
		{
			"buffer":0,
			"byteLength":10168,
			"byteOffset":84756,
			"target":34962
		},
		{
			"buffer":0,
			"byteLength":20336,
			"byteOffset":94924,
			"target":34962
		},
		{
			"buffer":0,
			"byteLength":5088,
			"byteOffset":115260,
			"target":34963
		},
		{
			"buffer":0,
			"byteLength":29952,
			"byteOffset":120348,
			"target":34962
		},
		{
			"buffer":0,
			"byteLength":29952,
			"byteOffset":150300,
			"target":34962
		},
		{
			"buffer":0,
			"byteLength":19968,
			"byteOffset":180252,
			"target":34962
		},
		{
			"buffer":0,
			"byteLength":39936,
			"byteOffset":200220,
			"target":34962
		},
		{
			"buffer":0,
			"byteLength":9240,
			"byteOffset":240156,
			"target":34963
		},
		{
			"buffer":0,
			"byteLength":33528,
			"byteOffset":249396,
			"target":34962
		},
		{
			"buffer":0,
			"byteLength":33528,
			"byteOffset":282924,
			"target":34962
		},
		{
			"buffer":0,
			"byteLength":22352,
			"byteOffset":316452,
			"target":34962
		},
		{
			"buffer":0,
			"byteLength":44704,
			"byteOffset":338804,
			"target":34962
		},
		{
			"buffer":0,
			"byteLength":13164,
			"byteOffset":383508,
			"target":34963
		}
	],
	"samplers":[
		{
			"magFilter":9729,
			"minFilter":9987
		}
	],
	"buffers":[
		{
			"byteLength":396672,
			"uri":"tank.bin"
		}
	]
}
