{
	"asset":{
		"generator":"Khronos glTF Blender I/O v5.2.39",
		"version":"2.0"
	},
	"scene":0,
	"scenes":[
		{
			"name":"Scene",
			"nodes":[2, 1]
		}
	],
	"nodes":[
		{
			"name":"Bone.001",
			"translation":[0, 1, 0]
		},
		{
			"children":[0],
			"name":"Bone"
		},
		{
			"mesh":0,
			"name":"Cube",
			"skin":0
		}
	],
	"animations":[
		{
			"channels":[
				{
					"sampler":0,
					"target":{
						"node":0,
						"path":"rotation"
					}
				}
			],
			"name":"ArmatureAction",
			"samplers":[
				{
					"input":8,
					"interpolation":"CUBICSPLINE",
					"output":9
				}
			]
		}
	],
	"materials":[
		{
			"name":"anim_phong_material",
			"pbrMetallicRoughness":{
				"baseColorTexture":{
					"index":0
				},
				"metallicFactor":0,
				"roughnessFactor":0.5
			}
		}
	],
	"meshes":[
		{
			"name":"Cube",
			"primitives":[
				{
					"attributes":{
						"POSITION":0,
						"NORMAL":1,
						"TEXCOORD_0":2,
						"TANGENT":3,
						"JOINTS_0":4,
						"WEIGHTS_0":5
					},
					"indices":6,
					"material":0
				}
			]
		}
	],
	"textures":[
		{
			"sampler":0,
			"source":0
		}
	],
	"images":[
		{
			"mimeType":"image/png",
			"name":"Sketchfab_UV_Checker",
			"uri":"Sketchfab_UV_Checker.png"
		}
	],
	"skins":[
		{
			"inverseBindMatrices":7,
			"joints":[1, 0],
			"name":"Armature"
		}
	],
	"accessors":[
		{
			"bufferView":0,
			"componentType":5126,
			"count":32,
			"max":[1, 3, 1],
			"min":[-1, -1, -1],
			"type":"VEC3"
		},
		{
			"bufferView":1,
			"componentType":5126,
			"count":32,
			"type":"VEC3"
		},
		{
			"bufferView":2,
			"componentType":5126,
			"count":32,
			"type":"VEC2"
		},
		{
			"bufferView":3,
			"componentType":5126,
			"count":32,
			"type":"VEC4"
		},
		{
			"bufferView":4,
			"componentType":5121,
			"count":32,
			"type":"VEC4"
		},
		{
			"bufferView":5,
			"componentType":5126,
			"count":32,
			"type":"VEC4"
		},
		{
			"bufferView":6,
			"componentType":5123,
			"count":60,
			"type":"SCALAR"
		},
		{
			"bufferView":7,
			"componentType":5126,
			"count":2,
			"type":"MAT4"
		},
		{
			"bufferView":8,
			"componentType":5126,
			"count":2,
			"max":[1.0416666666666667],
			"min":[0.041666666666666664],
			"type":"SCALAR"
		},
		{
			"bufferView":9,
			"componentType":5126,
			"count":6,
			"type":"VEC4"
		}
	],
	"bufferViews":[
		{
			"buffer":0,
			"byteLength":384,
			"byteOffset":0,
			"target":34962
		},
		{
			"buffer":0,
			"byteLength":384,
			"byteOffset":384,
			"target":34962
		},
		{
			"buffer":0,
			"byteLength":256,
			"byteOffset":768,
			"target":34962
		},
		{
			"buffer":0,
			"byteLength":512,
			"byteOffset":1024,
			"target":34962
		},
		{
			"buffer":0,
			"byteLength":128,
			"byteOffset":1536,
			"target":34962
		},
		{
			"buffer":0,
			"byteLength":512,
			"byteOffset":1664,
			"target":34962
		},
		{
			"buffer":0,
			"byteLength":120,
			"byteOffset":2176,
			"target":34963
		},
		{
			"buffer":0,
			"byteLength":128,
			"byteOffset":2296
		},
		{
			"buffer":0,
			"byteLength":8,
			"byteOffset":2424
		},
		{
			"buffer":0,
			"byteLength":96,
			"byteOffset":2432
		}
	],
	"samplers":[
		{
			"magFilter":9729,
			"minFilter":9987
		}
	],
	"buffers":[
		{
			"byteLength":2528,
			"uri":"uanim.bin"
		}
	]
}